<svg width="129" height="40" viewBox="0 0 129 40" fill="none" xmlns="http://www.w3.org/2000/svg">
  <path fill-rule="evenodd" clip-rule="evenodd"
    d="M123.371 38.0847H4.82418C2.4229 38.0847 0.475342 36.1521 0.475342 33.7693V5.90188C0.475342 3.51807 2.4229 1.58649 4.82418 1.58649H123.371C125.772 1.58649 127.719 3.51807 127.719 5.90188V33.7693C127.719 36.1521 125.772 38.0847 123.371 38.0847Z"
    fill="black" />
  <path fill-rule="evenodd" clip-rule="evenodd"
    d="M4.82433 2.05828C2.6893 2.05828 0.951157 3.78206 0.951157 5.90166V33.7691C0.951157 35.8887 2.6893 37.6125 4.82433 37.6125H123.371C125.507 37.6125 127.244 35.8887 127.244 33.7691V5.90166C127.244 3.78206 125.507 2.05828 123.371 2.05828H4.82433ZM123.371 38.5565H4.82433C2.16476 38.5565 -0.000183105 36.4092 -0.000183105 33.7691V5.90166C-0.000183105 3.26156 2.16476 1.11426 4.82433 1.11426H123.371C126.03 1.11426 128.195 3.26156 128.195 5.90166V33.7691C128.195 36.4092 126.03 38.5565 123.371 38.5565Z"
    fill="#A6A8AB" />
  <path fill-rule="evenodd" clip-rule="evenodd"
    d="M44.4537 10.9134L43.9661 9.3984C43.8464 9.02435 43.7457 8.60478 43.6539 8.24855H43.635C43.5432 8.60478 43.4515 9.03326 43.3408 9.3984L42.8631 10.9134H44.4537ZM42.6787 11.7614L42.1452 13.505H40.9774L42.9639 7.354H44.4078L46.4212 13.505H45.2076L44.6462 11.7614H42.6787Z"
    fill="#FEFEFE" />
  <path fill-rule="evenodd" clip-rule="evenodd"
    d="M48.112 9.06085L48.838 11.315C48.9666 11.7069 49.0594 12.0631 49.1421 12.4283H49.17C49.2528 12.0631 49.3535 11.7158 49.4732 11.315L50.1892 9.06085H51.3759L49.6657 13.5049H48.5528L46.8884 9.06085H48.112Z"
    fill="#FEFEFE" />
  <path fill-rule="evenodd" clip-rule="evenodd"
    d="M54.7866 11.3327C53.9869 11.3238 53.223 11.4881 53.223 12.163C53.223 12.6013 53.5082 12.8012 53.8672 12.8012C54.3269 12.8012 54.648 12.5093 54.7587 12.1907C54.7866 12.1085 54.7866 12.0264 54.7866 11.9443V11.3327ZM55.8895 12.4371C55.8895 12.8378 55.9085 13.2307 55.9633 13.5048H54.9432L54.8604 13.012H54.8325C54.5662 13.3583 54.0966 13.6047 53.5082 13.6047C52.6067 13.6047 52.1011 12.9576 52.1011 12.2817C52.1011 11.1685 53.1043 10.5936 54.7587 10.6025V10.5292C54.7587 10.2383 54.64 9.75443 53.8492 9.75443C53.4075 9.75443 52.9478 9.89098 52.6446 10.083L52.4232 9.35267C52.7543 9.1518 53.3337 8.96082 54.0417 8.96082C55.4767 8.96082 55.8895 9.86328 55.8895 10.84V12.4371Z"
    fill="#FEFEFE" />
  <mask id="mask0_0_21" style="mask-type:luminance" maskUnits="userSpaceOnUse" x="0" y="1"
    width="129" height="38">
    <path fill-rule="evenodd" clip-rule="evenodd" d="M0 38.5567H128.195V1.11444H0V38.5567Z"
      fill="white" />
  </mask>
  <g mask="url(#mask0_0_21)">
    <path fill-rule="evenodd" clip-rule="evenodd"
      d="M57.4883 13.5045H58.6191V9.06049H57.4883V13.5045ZM58.0497 8.42224C57.6727 8.42224 57.4244 8.14813 57.4244 7.81961C57.4244 7.47327 57.6817 7.20807 58.0587 7.20807C58.4456 7.20807 58.6839 7.47327 58.6929 7.81961C58.6929 8.14813 58.4456 8.42224 58.0587 8.42224H58.0497Z"
      fill="#FEFEFE" />
    <path fill-rule="evenodd" clip-rule="evenodd"
      d="M60.2466 13.5055H61.3774V7.01709H60.2466V13.5055Z" fill="#FEFEFE" />
    <path fill-rule="evenodd" clip-rule="evenodd"
      d="M65.3859 11.3327C64.5861 11.3238 63.8233 11.4881 63.8233 12.163C63.8233 12.6013 64.1075 12.8012 64.4665 12.8012C64.9262 12.8012 65.2483 12.5093 65.358 12.1907C65.3859 12.1085 65.3859 12.0264 65.3859 11.9443V11.3327ZM66.4898 12.4371C66.4898 12.8378 66.5078 13.2307 66.5626 13.5048H65.5425L65.4597 13.012H65.4318C65.1655 13.3583 64.6968 13.6047 64.1075 13.6047C63.207 13.6047 62.7014 12.9576 62.7014 12.2817C62.7014 11.1685 63.7036 10.5936 65.358 10.6025V10.5292C65.358 10.2383 65.2393 9.75443 64.4485 9.75443C64.0068 9.75443 63.5471 9.89098 63.2439 10.083L63.0225 9.35267C63.3536 9.1518 63.933 8.96082 64.641 8.96082C66.076 8.96082 66.4898 9.86328 66.4898 10.84V12.4371Z"
      fill="#FEFEFE" />
    <path fill-rule="evenodd" clip-rule="evenodd"
      d="M69.2195 11.6705C69.2195 11.7615 69.2285 11.8535 69.2474 11.9347C69.3671 12.3919 69.762 12.7204 70.2496 12.7204C70.9576 12.7204 71.3894 12.1633 71.3894 11.2598C71.3894 10.4751 71.0125 9.83587 70.2586 9.83587C69.7989 9.83587 69.3761 10.1654 69.2564 10.6582C69.2384 10.7393 69.2195 10.8402 69.2195 10.9491V11.6705ZM68.0887 7.01666H69.2195V9.6716H69.2384C69.5137 9.24313 70.0013 8.96012 70.6734 8.96012C71.7674 8.96012 72.5482 9.86357 72.5392 11.2143C72.5392 12.8104 71.5191 13.605 70.5079 13.605C69.9275 13.605 69.413 13.3853 69.0909 12.8381H69.0729L69.0171 13.5051H68.0518C68.0707 13.2033 68.0887 12.7105 68.0887 12.2632V7.01666Z"
      fill="#FEFEFE" />
    <path fill-rule="evenodd" clip-rule="evenodd"
      d="M73.8715 13.5055H75.0023V7.01709H73.8715V13.5055Z" fill="#FEFEFE" />
    <path fill-rule="evenodd" clip-rule="evenodd"
      d="M79.4058 10.8129C79.4148 10.4022 79.2313 9.72635 78.4774 9.72635C77.7784 9.72635 77.4842 10.3567 77.4383 10.8129H79.4058ZM77.4383 11.5976C77.4662 12.4001 78.0995 12.7474 78.8175 12.7474C79.341 12.7474 79.709 12.6653 80.059 12.5465L80.2245 13.3125C79.8386 13.4767 79.3041 13.5964 78.6609 13.5964C77.208 13.5964 76.3524 12.7108 76.3524 11.3512C76.3524 10.1192 77.1072 8.96045 78.5412 8.96045C79.9942 8.96045 80.4718 10.1469 80.4718 11.1226C80.4718 11.3324 80.4539 11.4966 80.4359 11.5976H77.4383Z"
      fill="#FEFEFE" />
    <path fill-rule="evenodd" clip-rule="evenodd"
      d="M86.0893 12.7929C86.7325 12.7929 87.1832 12.1725 87.1832 11.269C87.1832 10.5754 86.8711 9.77286 86.0983 9.77286C85.2985 9.77286 84.9764 10.5477 84.9764 11.2878C84.9764 12.1448 85.4082 12.7929 86.0803 12.7929H86.0893ZM86.0524 13.6054C84.7929 13.6054 83.8077 12.7474 83.8077 11.3146C83.8077 9.854 84.774 8.96045 86.1262 8.96045C87.4595 8.96045 88.352 9.89062 88.352 11.2423C88.352 12.8751 87.1922 13.6054 86.0614 13.6054H86.0524Z"
      fill="#FEFEFE" />
    <path fill-rule="evenodd" clip-rule="evenodd"
      d="M89.6833 10.3838C89.6833 9.87218 89.6643 9.44371 89.6464 9.06076H90.6296L90.6855 9.72672H90.7134C90.9148 9.38038 91.4025 8.96082 92.1474 8.96082C92.9292 8.96082 93.7379 9.46251 93.7379 10.8677V13.5048H92.6071V10.9953C92.6071 10.3571 92.3678 9.87218 91.7515 9.87218C91.3017 9.87218 90.9896 10.1918 90.8689 10.5292C90.832 10.6213 90.8141 10.7578 90.8141 10.8855V13.5048H89.6833V10.3838Z"
      fill="#FEFEFE" />
    <path fill-rule="evenodd" clip-rule="evenodd"
      d="M98.9498 7.92017V9.06111H100.026V9.90024H98.9498V11.8536C98.9498 12.4008 99.0963 12.6739 99.5291 12.6739C99.7306 12.6739 99.8413 12.665 99.9699 12.6284L99.9889 13.4774C99.8223 13.5417 99.5202 13.5962 99.1701 13.5962C98.7473 13.5962 98.4073 13.4586 98.1959 13.231C97.9476 12.9757 97.8369 12.5651 97.8369 11.9812V9.90024H97.2026V9.06111H97.8369V8.22989L98.9498 7.92017Z"
      fill="#FEFEFE" />
    <path fill-rule="evenodd" clip-rule="evenodd"
      d="M101.285 7.0166H102.416V9.66263H102.434C102.572 9.45285 102.765 9.27968 102.995 9.16094C103.226 9.03329 103.492 8.96006 103.777 8.96006C104.54 8.96006 105.34 9.46275 105.34 10.8857V13.505H104.209V11.0045C104.209 10.3652 103.97 9.87242 103.344 9.87242C102.904 9.87242 102.59 10.1653 102.462 10.5018C102.425 10.6027 102.416 10.7214 102.416 10.8402V13.505H101.285V7.0166Z"
      fill="#FEFEFE" />
    <path fill-rule="evenodd" clip-rule="evenodd"
      d="M109.715 10.8129C109.725 10.4022 109.54 9.72635 108.786 9.72635C108.088 9.72635 107.794 10.3567 107.747 10.8129H109.715ZM107.747 11.5976C107.775 12.4001 108.409 12.7474 109.126 12.7474C109.651 12.7474 110.019 12.6653 110.368 12.5465L110.533 13.3125C110.148 13.4767 109.613 13.5964 108.971 13.5964C107.518 13.5964 106.662 12.7108 106.662 11.3512C106.662 10.1192 107.416 8.96045 108.851 8.96045C110.304 8.96045 110.782 10.1469 110.782 11.1226C110.782 11.3324 110.764 11.4966 110.745 11.5976H107.747Z"
      fill="#FEFEFE" />
    <path fill-rule="evenodd" clip-rule="evenodd"
      d="M28.6093 19.47C28.5814 16.4271 31.1213 14.9448 31.237 14.8765C29.8 12.7935 27.5692 12.5105 26.7864 12.4878C24.9146 12.2938 23.0987 13.601 22.1464 13.601C21.1731 13.601 19.7012 12.5076 18.1206 12.5392C16.0833 12.5719 14.1777 13.7415 13.1336 15.5583C10.9776 19.2641 12.5861 24.7076 14.6513 27.7049C15.6854 29.1704 16.8931 30.8081 18.4736 30.7498C20.0203 30.6864 20.5967 29.7731 22.4645 29.7731C24.3143 29.7731 24.8568 30.7498 26.4693 30.7131C28.1296 30.6864 29.1727 29.2407 30.1699 27.7594C31.3666 26.0791 31.8453 24.4236 31.8642 24.3375C31.8253 24.3247 28.6412 23.1194 28.6093 19.47Z"
      fill="#FEFEFE" />
    <path fill-rule="evenodd" clip-rule="evenodd"
      d="M25.5631 10.5182C26.3948 9.48609 26.9652 8.08095 26.8046 6.65601C25.602 6.70944 24.0972 7.48227 23.2306 8.49259C22.4628 9.38219 21.7757 10.8418 21.9542 12.2123C23.3074 12.3112 24.6945 11.5344 25.5631 10.5182Z"
      fill="#FEFEFE" />
    <path fill-rule="evenodd" clip-rule="evenodd"
      d="M47.2725 25.282L46.2065 22.0096C46.0908 21.6762 45.8804 20.8885 45.5683 19.6496H45.5304C45.4047 20.1829 45.2043 20.9696 44.9301 22.0096L43.881 25.282H47.2725ZM50.9622 30.5088H48.8082L47.6275 26.8267H43.526L42.4001 30.5088H40.302L44.3696 17.9763H46.8776L50.9622 30.5088Z"
      fill="#FEFEFE" />
    <path fill-rule="evenodd" clip-rule="evenodd"
      d="M59.3568 25.9518C59.3568 25.0721 59.1564 24.3467 58.7575 23.7758C58.3197 23.182 57.7324 22.8832 56.9974 22.8832C56.4968 22.8832 56.0421 23.0494 55.6382 23.376C55.2324 23.7065 54.9671 24.1369 54.8425 24.6703C54.7796 24.9187 54.7487 25.1215 54.7487 25.2818V26.7889C54.7487 27.446 54.9512 28.0011 55.356 28.4523C55.7629 28.9065 56.2904 29.1302 56.9406 29.1302C57.7025 29.1302 58.2958 28.8412 58.7196 28.2584C59.1454 27.6745 59.3568 26.9067 59.3568 25.9518ZM61.4181 25.8775C61.4181 27.4153 61.0002 28.6295 60.1626 29.522C59.4127 30.3156 58.4823 30.7115 57.3714 30.7115C56.1727 30.7115 55.3092 30.283 54.7856 29.429H54.7487V34.1877H52.7244V24.4467C52.7244 23.4799 52.6995 22.4894 52.6496 21.4721H54.4296L54.5413 22.904H54.5802C55.2543 21.8254 56.2794 21.2861 57.6526 21.2861C58.7246 21.2861 59.6231 21.7076 60.3411 22.5507C61.0591 23.3948 61.4181 24.5031 61.4181 25.8775Z"
      fill="#FEFEFE" />
    <path fill-rule="evenodd" clip-rule="evenodd"
      d="M69.8315 25.9518C69.8315 25.0721 69.631 24.3467 69.2301 23.7758C68.7924 23.182 68.207 22.8832 67.4701 22.8832C66.9695 22.8832 66.5157 23.0494 66.1119 23.376C65.705 23.7065 65.4407 24.1369 65.3161 24.6703C65.2523 24.9187 65.2213 25.1215 65.2213 25.2818V26.7889C65.2213 27.446 65.4238 28.0011 65.8296 28.4523C66.2365 28.9065 66.762 29.1302 67.4142 29.1302C68.1751 29.1302 68.7704 28.8412 69.1932 28.2584C69.6171 27.6745 69.8315 26.9067 69.8315 25.9518ZM71.8907 25.8775C71.8907 27.4153 71.4729 28.6295 70.6352 29.522C69.8853 30.3156 68.9559 30.7115 67.843 30.7115C66.6454 30.7115 65.7838 30.283 65.2592 29.429H65.2213V34.1877H63.199V24.4467C63.199 23.4799 63.1721 22.4894 63.1242 21.4721H64.9032L65.0159 22.904H65.0548C65.7269 21.8254 66.7511 21.2861 68.1262 21.2861C69.1992 21.2861 70.0957 21.7076 70.8147 22.5507C71.5327 23.3948 71.8907 24.5031 71.8907 25.8775Z"
      fill="#FEFEFE" />
    <path fill-rule="evenodd" clip-rule="evenodd"
      d="M83.6021 26.9935C83.6021 28.0592 83.2301 28.926 82.4792 29.596C81.6565 30.3282 80.5107 30.6924 79.0408 30.6924C77.6826 30.6924 76.5917 30.4331 75.766 29.9126L76.2357 28.2393C77.1242 28.7727 78.0985 29.0378 79.1615 29.0378C79.9244 29.0378 80.5167 28.8686 80.9425 28.5272C81.3663 28.1859 81.5787 27.7287 81.5787 27.1587C81.5787 26.6501 81.4032 26.2206 81.0542 25.8733C80.7062 25.525 80.1218 25.2024 79.3101 24.9045C77.0993 24.0842 75.9953 22.8869 75.9953 21.3105C75.9953 20.2794 76.3813 19.4353 77.1571 18.7783C77.9309 18.1193 78.9611 17.7897 80.2485 17.7897C81.3982 17.7897 82.3536 17.9886 83.1144 18.3854L82.6089 20.0211C81.8968 19.6382 81.0921 19.4452 80.1916 19.4452C79.4786 19.4452 78.9242 19.6184 78.5253 19.9657C78.1892 20.2755 78.0197 20.6545 78.0197 21.0997C78.0197 21.5945 78.2122 22.0052 78.5991 22.3258C78.9351 22.6236 79.5474 22.9462 80.4359 23.2946C81.5229 23.728 82.3207 24.2356 82.8332 24.8175C83.3458 25.4013 83.6021 26.1266 83.6021 26.9935Z"
      fill="#FEFEFE" />
    <path fill-rule="evenodd" clip-rule="evenodd"
      d="M90.2904 22.9773H88.0606V27.3649C88.0606 28.4811 88.4545 29.0382 89.2423 29.0382C89.6023 29.0382 89.9025 29.0076 90.1398 28.9462L90.1956 30.4701C89.7988 30.6195 89.2722 30.6928 88.623 30.6928C87.8233 30.6928 87.198 30.4513 86.7493 29.9694C86.3005 29.4855 86.0742 28.6721 86.0742 27.5332V22.9773H84.7439V21.4702H86.0742V19.8167L88.0606 19.221V21.4702H90.2904V22.9773Z"
      fill="#FEFEFE" />
    <path fill-rule="evenodd" clip-rule="evenodd"
      d="M98.2535 25.9798C98.2535 25.1476 98.073 24.4331 97.71 23.8354C97.2862 23.1151 96.6799 22.7549 95.8941 22.7549C95.0794 22.7549 94.4621 23.1151 94.0383 23.8354C93.6753 24.4331 93.4968 25.1595 93.4968 26.0194C93.4968 26.8516 93.6753 27.566 94.0383 28.1617C94.4751 28.8821 95.0874 29.2423 95.8762 29.2423C96.649 29.2423 97.2553 28.8772 97.6921 28.1429C98.066 27.5344 98.2535 26.813 98.2535 25.9798ZM100.353 25.9155C100.353 27.3038 99.9538 28.4437 99.154 29.3363C98.3153 30.2546 97.2034 30.7118 95.8193 30.7118C94.4811 30.7118 93.418 30.2714 92.6242 29.3917C91.8305 28.512 91.4346 27.4018 91.4346 26.0649C91.4346 24.6627 91.8424 23.5168 92.6621 22.6252C93.4779 21.7317 94.5808 21.2854 95.9679 21.2854C97.3032 21.2854 98.3792 21.7257 99.1909 22.6054C99.9667 23.4624 100.353 24.5638 100.353 25.9155Z"
      fill="#FEFEFE" />
    <path fill-rule="evenodd" clip-rule="evenodd"
      d="M106.928 23.2368C106.728 23.2012 106.516 23.1814 106.292 23.1814C105.581 23.1814 105.029 23.4495 104.642 23.9819C104.306 24.4529 104.137 25.0486 104.137 25.766V30.5069H102.114L102.131 24.3174C102.131 23.2754 102.106 22.3274 102.058 21.4714H103.82L103.894 23.2012H103.948C104.162 22.6064 104.5 22.1285 104.96 21.7703C105.41 21.4477 105.899 21.2854 106.423 21.2854C106.61 21.2854 106.779 21.2983 106.928 21.321V23.2368Z"
      fill="#FEFEFE" />
    <path fill-rule="evenodd" clip-rule="evenodd"
      d="M114.047 25.0405C114.062 24.4467 113.931 23.9322 113.655 23.4978C113.305 22.9397 112.766 22.6606 112.042 22.6606C111.382 22.6606 110.844 22.9347 110.432 23.4799C110.094 23.9144 109.895 24.4329 109.834 25.0405H114.047ZM115.977 25.561C115.977 25.9221 115.952 26.2239 115.903 26.4723H109.834C109.857 27.3649 110.152 28.0477 110.714 28.5197C111.224 28.9402 111.888 29.149 112.7 29.149C113.598 29.149 114.416 29.0075 115.154 28.7225L115.472 30.1168C114.611 30.4889 113.594 30.6759 112.417 30.6759C111.007 30.6759 109.898 30.2633 109.092 29.438C108.288 28.6147 107.883 27.5074 107.883 26.1191C107.883 24.7565 108.258 23.6215 109.009 22.716C109.794 21.7492 110.857 21.2673 112.192 21.2673C113.504 21.2673 114.499 21.7492 115.175 22.716C115.71 23.4849 115.977 24.4329 115.977 25.561Z"
      fill="#FEFEFE" />
  </g>
</svg>