<svg width="130" height="40" viewBox="0 0 130 40" fill="none" xmlns="http://www.w3.org/2000/svg">
  <path fill-rule="evenodd" clip-rule="evenodd"
    d="M124.23 38.0851H5.68325C3.28197 38.0851 1.33441 36.1525 1.33441 33.7697V5.90224C1.33441 3.51844 3.28197 1.58685 5.68325 1.58685H124.23C126.631 1.58685 128.578 3.51844 128.578 5.90224V33.7697C128.578 36.1525 126.631 38.0851 124.23 38.0851"
    fill="black" />
  <mask id="mask0_0_22" style="mask-type:luminance" maskUnits="userSpaceOnUse" x="0" y="1"
    width="130" height="38">
    <path fill-rule="evenodd" clip-rule="evenodd"
      d="M0.85907 1.11444H129.054V38.5564H0.85907V1.11444Z" fill="white" />
  </mask>
  <g mask="url(#mask0_0_22)">
    <path fill-rule="evenodd" clip-rule="evenodd"
      d="M5.6834 2.05816C3.54837 2.05816 1.81023 3.78194 1.81023 5.90154V33.769C1.81023 35.8886 3.54837 37.6124 5.6834 37.6124H124.23C126.366 37.6124 128.103 35.8886 128.103 33.769V5.90154C128.103 3.78194 126.366 2.05816 124.23 2.05816H5.6834ZM124.23 38.5564H5.6834C3.02383 38.5564 0.858887 36.4091 0.858887 33.769V5.90154C0.858887 3.26144 3.02383 1.11414 5.6834 1.11414H124.23C126.89 1.11414 129.054 3.26144 129.054 5.90154V33.769C129.054 36.4091 126.89 38.5564 124.23 38.5564V38.5564Z"
      fill="#A6A8AB" />
  </g>
  <mask id="mask1_0_22" style="mask-type:luminance" maskUnits="userSpaceOnUse" x="0" y="1"
    width="130" height="38">
    <path fill-rule="evenodd" clip-rule="evenodd"
      d="M0.85907 38.5567H129.054V1.11444H0.85907V38.5567Z" fill="white" />
  </mask>
  <g mask="url(#mask1_0_22)">
    <path fill-rule="evenodd" clip-rule="evenodd"
      d="M102.289 29.3451H104.057V17.5923H102.289V29.3451ZM118.214 21.8265L116.188 26.9217H116.127L114.024 21.8265H112.119L115.273 28.9483L113.475 32.9104H115.319L120.179 21.8265H118.214ZM108.187 28.0112C107.608 28.0112 106.801 27.7242 106.801 27.0127C106.801 26.1053 107.806 25.757 108.675 25.757C109.451 25.757 109.817 25.9242 110.29 26.1508C110.152 27.2393 109.208 28.0112 108.187 28.0112V28.0112ZM108.4 21.5693C107.12 21.5693 105.795 22.1284 105.246 23.3683L106.816 24.0194C107.151 23.3683 107.776 23.1565 108.43 23.1565C109.345 23.1565 110.275 23.7007 110.29 24.6685V24.7902C109.97 24.6081 109.284 24.336 108.446 24.336C106.755 24.336 105.033 25.2593 105.033 26.983C105.033 28.5554 106.419 29.5687 107.974 29.5687C109.162 29.5687 109.817 29.0393 110.229 28.4189H110.29V29.3263H111.996V24.8199C111.996 22.733 110.428 21.5693 108.4 21.5693V21.5693ZM97.4749 23.2574H94.96V19.228H97.4749C98.7962 19.228 99.5471 20.3135 99.5471 21.2427C99.5471 22.1531 98.7962 23.2574 97.4749 23.2574V23.2574ZM97.4291 17.5923H93.1929V29.3451H94.96V24.8931H97.4291C99.3886 24.8931 101.314 23.485 101.314 21.2427C101.314 18.9994 99.3886 17.5923 97.4291 17.5923V17.5923ZM74.3286 28.0132C73.1071 28.0132 72.0839 26.9979 72.0839 25.6046C72.0839 24.1955 73.1071 23.1664 74.3286 23.1664C75.5343 23.1664 76.4806 24.1955 76.4806 25.6046C76.4806 26.9979 75.5343 28.0132 74.3286 28.0132V28.0132ZM76.358 22.4846H76.2971C75.9002 22.0146 75.1374 21.59 74.1751 21.59C72.1607 21.59 70.3139 23.3475 70.3139 25.6046C70.3139 27.8469 72.1607 29.5885 74.1751 29.5885C75.1374 29.5885 75.9002 29.164 76.2971 28.6801H76.358V29.255C76.358 30.7849 75.5343 31.6032 74.206 31.6032C73.122 31.6032 72.4509 30.8304 72.1757 30.1793L70.634 30.8155C71.0767 31.8753 72.2524 33.1776 74.206 33.1776C76.2822 33.1776 78.0373 31.9664 78.0373 29.0126V21.8335H76.358V22.4846ZM79.2589 29.3451H81.0299V17.5913H79.2589V29.3451ZM83.6396 25.4681C83.5937 23.9234 84.8452 23.1357 85.7457 23.1357C86.4478 23.1357 87.0431 23.484 87.2415 23.9837L83.6396 25.4681ZM89.1342 24.1351C88.7982 23.2416 87.776 21.59 85.6849 21.59C83.6087 21.59 81.8835 23.2119 81.8835 25.5898C81.8835 27.8311 83.5937 29.5885 85.8833 29.5885C87.7302 29.5885 88.7982 28.4674 89.2409 27.8162L87.8678 26.9078C87.4101 27.5738 86.7838 28.0132 85.8833 28.0132C84.9829 28.0132 84.3416 27.6045 83.9298 26.801L89.3177 24.5903L89.1342 24.1351ZM46.2063 22.8181V24.5141H50.2968C50.1742 25.4681 49.8541 26.1657 49.3654 26.6496C48.7701 27.2403 47.8387 27.8924 46.2063 27.8924C43.6873 27.8924 41.7188 25.8777 41.7188 23.3781C41.7188 20.8786 43.6873 18.8648 46.2063 18.8648C47.5645 18.8648 48.5567 19.3943 49.2896 20.076L50.4953 18.8797C49.4721 17.9099 48.1139 17.1678 46.2063 17.1678C42.7559 17.1678 39.856 19.9553 39.856 23.3781C39.856 26.801 42.7559 29.5885 46.2063 29.5885C48.0681 29.5885 49.4721 28.9819 50.5711 27.8469C51.7009 26.7258 52.0519 25.1504 52.0519 23.8779C52.0519 23.484 52.022 23.1209 51.9612 22.8181H46.2063ZM56.7029 28.0132C55.4813 28.0132 54.4283 27.0137 54.4283 25.5898C54.4283 24.15 55.4813 23.1664 56.7029 23.1664C57.9235 23.1664 58.9776 24.15 58.9776 25.5898C58.9776 27.0137 57.9235 28.0132 56.7029 28.0132V28.0132ZM56.7029 21.59C54.4742 21.59 52.6572 23.2723 52.6572 25.5898C52.6572 27.8924 54.4742 29.5885 56.7029 29.5885C58.9317 29.5885 60.7476 27.8924 60.7476 25.5898C60.7476 23.2723 58.9317 21.59 56.7029 21.59V21.59ZM65.5272 28.0132C64.3057 28.0132 63.2526 27.0137 63.2526 25.5898C63.2526 24.15 64.3057 23.1664 65.5272 23.1664C66.7478 23.1664 67.8009 24.15 67.8009 25.5898C67.8009 27.0137 66.7478 28.0132 65.5272 28.0132V28.0132ZM65.5272 21.59C63.2985 21.59 61.4816 23.2723 61.4816 25.5898C61.4816 27.8924 63.2985 29.5885 65.5272 29.5885C67.755 29.5885 69.5719 27.8924 69.5719 25.5898C69.5719 23.2723 67.755 21.59 65.5272 21.59V21.59Z"
      fill="#FEFEFE" />
    <path fill-rule="evenodd" clip-rule="evenodd"
      d="M10.8569 8.23606C10.5817 8.52501 10.4191 8.97426 10.4191 9.55512V30.3325C10.4191 30.9134 10.5817 31.3626 10.8569 31.6526L10.9267 31.7199L22.6549 20.0809V19.9443V19.8068L10.9267 8.16779L10.8569 8.23606Z"
      fill="#5AC8F2" />
  </g>
  <mask id="mask2_0_22" style="mask-type:luminance" maskUnits="userSpaceOnUse" x="22" y="15"
    width="11" height="9">
    <path fill-rule="evenodd" clip-rule="evenodd"
      d="M22.6552 19.8059V19.9434V20.081L26.5642 23.962L26.654 23.9115L31.286 21.3001C32.6083 20.554 32.6083 19.3339 31.286 18.5878V18.5878L26.654 15.9754L26.5652 15.9259L22.6552 19.8059Z"
      fill="white" />
  </mask>
  <g mask="url(#mask2_0_22)">
    <path fill-rule="evenodd" clip-rule="evenodd"
      d="M22.6552 19.8059V19.9434V20.081L26.5642 23.962L26.654 23.9115L31.286 21.3001C32.6083 20.554 32.6083 19.3339 31.286 18.5878V18.5878L26.654 15.9754L26.5652 15.9259L22.6552 19.8059Z"
      fill="url(#paint0_linear_0_22)" />
  </g>
  <mask id="mask3_0_22" style="mask-type:luminance" maskUnits="userSpaceOnUse" x="10" y="19"
    width="17" height="14">
    <path fill-rule="evenodd" clip-rule="evenodd"
      d="M10.8571 31.6517C11.2929 32.1109 12.0129 32.1663 12.8246 31.7091V31.7091L26.6539 23.9115L22.6551 19.9435L10.8571 31.6517Z"
      fill="white" />
  </mask>
  <g mask="url(#mask3_0_22)">
    <path fill-rule="evenodd" clip-rule="evenodd"
      d="M10.8571 31.6517C11.2929 32.1109 12.0129 32.1663 12.8246 31.7091V31.7091L26.6539 23.9115L22.6551 19.9435L10.8571 31.6517Z"
      fill="url(#paint1_linear_0_22)" />
  </g>
  <mask id="mask4_0_22" style="mask-type:luminance" maskUnits="userSpaceOnUse" x="10" y="7"
    width="17" height="13">
    <path fill-rule="evenodd" clip-rule="evenodd"
      d="M10.8571 8.23622L22.6551 19.9435L26.6539 15.9754L12.8246 8.17883C12.4437 7.9641 12.0837 7.86316 11.7636 7.86316V7.86316C11.4006 7.86218 11.0885 7.99279 10.8571 8.23622"
      fill="white" />
  </mask>
  <g mask="url(#mask4_0_22)">
    <path fill-rule="evenodd" clip-rule="evenodd"
      d="M10.8571 8.23622L22.6551 19.9435L26.6539 15.9754L12.8246 8.17883C12.4437 7.9641 12.0837 7.86316 11.7636 7.86316V7.86316C11.4006 7.86218 11.0885 7.99279 10.8571 8.23622"
      fill="url(#paint2_linear_0_22)" />
  </g>
  <path fill-rule="evenodd" clip-rule="evenodd"
    d="M44.4076 8.90044C44.0526 8.58775 43.5829 8.38687 43.0654 8.38687C41.8996 8.38687 41.0021 9.34178 41.0021 10.5144C41.0021 11.686 41.8996 12.633 43.0654 12.633C44.0686 12.633 44.7965 12.0551 44.8444 11.1398H43.2598V10.4896H45.702C45.702 12.4331 44.6589 13.3484 43.0654 13.3484C41.4788 13.3484 40.2502 12.0798 40.2502 10.5144C40.2502 8.94102 41.4788 7.67242 43.0654 7.67242C43.8013 7.67242 44.4645 7.95345 44.9501 8.40271L44.4076 8.90044Z"
    fill="#FEFEFE" />
  <path fill-rule="evenodd" clip-rule="evenodd"
    d="M50.0315 7.73645V8.43507H47.4826V10.2014H49.7074V10.9H47.4826V12.5694H50.1123V13.268H46.7307V7.73645H50.0315Z"
    fill="#FEFEFE" />
  <path fill-rule="evenodd" clip-rule="evenodd"
    d="M54.9104 7.73645V8.44298H53.2192V13.268H52.4593V8.44298H50.768V7.73645H54.9104Z"
    fill="#FEFEFE" />
  <path fill-rule="evenodd" clip-rule="evenodd" d="M57.768 13.268H58.5199V7.73645H57.768V13.268Z"
    fill="#FEFEFE" />
  <path fill-rule="evenodd" clip-rule="evenodd"
    d="M63.6487 7.73645V8.44298H61.9584V13.268H61.1976V8.44298H59.5063V7.73645H63.6487Z"
    fill="#FEFEFE" />
  <path fill-rule="evenodd" clip-rule="evenodd"
    d="M68.9572 12.6252C70.1299 12.6252 71.0284 11.6861 71.0284 10.5145C71.0284 9.3419 70.1299 8.39491 68.9572 8.39491C67.7924 8.39491 66.8939 9.3419 66.8939 10.5145C66.8939 11.6861 67.7924 12.6252 68.9572 12.6252M68.9572 7.67255C70.5507 7.67255 71.7883 8.94015 71.7883 10.5145C71.7883 12.08 70.5507 13.3476 68.9572 13.3476C67.3716 13.3476 66.1411 12.08 66.1411 10.5145C66.1411 8.94015 67.3716 7.67255 68.9572 7.67255"
    fill="#FEFEFE" />
  <path fill-rule="evenodd" clip-rule="evenodd"
    d="M76.239 13.2678L73.6991 9.10183V13.2678H72.9462V7.73627H73.6911L76.2071 11.8706V7.73627H76.959V13.2678H76.239Z"
    fill="#FEFEFE" />
  <defs>
    <linearGradient id="paint0_linear_0_22" x1="30.4257" y1="10.379" x2="7.51855" y2="10.379"
      gradientUnits="userSpaceOnUse">
      <stop stop-color="#FEFEFE" />
      <stop offset="1" stop-color="#F8F8F8" />
    </linearGradient>
    <linearGradient id="paint1_linear_0_22" x1="10.5043" y1="13.8607" x2="-4.40486" y2="39.1521"
      gradientUnits="userSpaceOnUse">
      <stop stop-color="#EE4547" />
      <stop offset="1" stop-color="#C7186D" />
    </linearGradient>
    <linearGradient id="paint2_linear_0_22" x1="-8.57325" y1="3.03929" x2="3.59705" y2="23.6898"
      gradientUnits="userSpaceOnUse">
      <stop stop-color="#73C169" />
      <stop offset="1" stop-color="#289E6F" />
    </linearGradient>
  </defs>
</svg>